# xmcd CD database file
#
# Track frame offsets:
#	150
#	13279
#	28824
#	42525
#	56181
#	65658
#	78170
#	89060
#	114072
#	130014
#	145337
#	162128
#	175365
#	193533
#	208032
#	228637
#	244885
#	261584
#	281978
#
# Disc length: 4078 seconds
#
# Revision: 0
# Processed by: cddbd v1.5.2PL0 Copyright (c) Steve Scherf et al.
# Submitted via: CDex 1.51
#
DISCID=260fec13
DTITLE=Stevie Ray Vaughan and Double Trouble - Nashville 1978
DYEAR=1978
DGENRE=Blues
TTITLE0=1st Unreleased Album - 01 - You Can Have My Husband (1978)
TTITLE1=1st Unreleased Album - 02 - Rude Mood (1978)
TTITLE2=1st Unreleased Album - 03 - Pride And Joy (1978)
TTITLE3=1st Unreleased Album - 04 - Oh Yeah (1978)
TTITLE4=1st Unreleased Album - 05 - Love Struck Baby (1978)
TTITLE5=1st Unreleased Album - 06 - Ti-Ni-Nee-Ni-Nu (1978)
TTITLE6=1st Unreleased Album - 07 - Gonna Miss Me (1978)
TTITLE7=1st Unreleased Album - 08 - I Wonder Why (1978)
TTITLE8=1st Unreleased Album - 09 - I´m Crying (1978)
TTITLE9=1st Unreleased Album - 10 - Sugar Coated Loving (1978)
TTITLE10=Austin Festival - 11 - Natural Born Lover (1979) (Bonus)
TTITLE11=Austin Festival - 12 - Ti-Ni-Nee-Ni-Nu (1979) (Bonus)
TTITLE12=Austin Festival - 13 - Scratch My Back (1979) (Bonus)
TTITLE13=Austin Festival - 14 - I´ll Change (1979) (Bonus)
TTITLE14=Austin Festival - 15 - Shake A Hand (1979) (Bonus)
TTITLE15=Austin Festival - 16 - Oh Baby (1979) (Bonus)
TTITLE16=Austin Festival - 17 - Sugar Coated Love (1979) (Bonus)
TTITLE17=Austin Festival - 18 - Love In Vain (1979) (Bonus)
TTITLE18=Austin Festival - 19 - You Can Have My Husband (1979) (Bonus)
EXTD=YEAR: 1978
EXTT0=
EXTT1=
EXTT2=
EXTT3=
EXTT4=
EXTT5=
EXTT6=
EXTT7=
EXTT8=
EXTT9=
EXTT10=
EXTT11=
EXTT12=
EXTT13=
EXTT14=
EXTT15=
EXTT16=
EXTT17=
EXTT18=
PLAYORDER=
